<?xml version="1.0" encoding="utf-8"?>
<svg xmlns="http://www.w3.org/2000/svg" viewBox="0 0 24 24" fill="none">
  <rect width="24" height="24" rx="6" fill="#4f46e5"/>
  <g id="Layer_1" style="" transform="matrix(0.025281, 0, 0, 0.024613, 11.508381, 9.103653)">
    <path fill="#FFFFFF" opacity="1.FFFFFF" stroke="none" d="M -103.33 -208.61 C -39.008 -208.6 24.812 -208.63 88.632 -208.55 C 105.778 -208.53 122.925 -209.43 140.076 -208.01 C 149.547 -207.22 157.384 -203.44 164.009 -196.94 C 176.377 -184.8 188.602 -172.52 200.933 -160.35 C 216.226 -145.25 231.331 -129.94 246.961 -115.2 C 259.397 -103.47 265.052 -89.51 265.038 -72.482 C 264.925 65.996 265.025 204.473 265.057 342.95 C 265.06 357.614 265.149 372.279 265.013 386.942 C 264.73 417.667 241.149 441.581 210.479 441.632 C 113.163 441.794 15.847 441.713 -81.469 441.719 C -109.13 441.72 -136.79 441.73 -164.46 441.674 C -190.86 441.62 -214.25 419.537 -215.64 393.175 C -217.37 360.211 -216.13 327.216 -216.24 294.237 C -216.49 217.42 -216.35 140.602 -216.39 63.784 C -216.43 -5.537 -216.45 -74.857 -216.56 -144.18 C -216.58 -159.64 -214.52 -174.39 -204.43 -186.99 C -193.35 -200.82 -179.13 -208.38 -161.31 -208.53 C -142.15 -208.7 -122.99 -208.6 -103.33 -208.61 M -196.35 -96.142 C -196.32 -66.987 -196.27 -37.833 -196.26 -8.678 C -196.22 95.297 -196.19 199.273 -196.15 303.248 C -196.14 331.574 -196.35 359.905 -195.93 388.225 C -195.65 406.631 -180.48 421.099 -162.43 421.101 C -38.464 421.115 85.506 421.11 209.477 421.086 C 211.794 421.085 214.171 421.039 216.42 420.551 C 234.743 416.571 245.321 402.742 245.323 382.818 C 245.334 258.18 245.332 133.543 245.331 8.905 C 245.331 -17.422 245.303 -43.75 245.338 -70.077 C 245.343 -73.312 245.264 -76.609 240.89 -76.095 C 233.874 -75.271 226.919 -76.375 219.93 -76.214 C 206.624 -75.908 193.299 -75.397 180.006 -75.788 C 155.684 -76.504 137.131 -96.587 137.047 -117.41 C 136.964 -138.22 136.805 -159.04 136.583 -179.86 C 136.504 -187.31 136.618 -187.37 129.276 -187.38 C 32.966 -187.41 -63.345 -187.42 -159.66 -187.41 C -161.81 -187.41 -164 -187.27 -166.1 -186.84 C -184.8 -183.03 -196 -169.75 -196.25 -150.61 C -196.49 -132.79 -196.31 -114.97 -196.35 -96.142 M 167.125 -101.55 C 171.556 -98.211 176.62 -96.824 182.089 -96.817 C 198.078 -96.797 214.067 -96.805 230.056 -96.851 C 231.279 -96.855 232.767 -96.35 232.245 -96.528 C 207.342 -122.31 182.439 -148.1 157.662 -173.76 C 155.907 -172.67 156.092 -171.59 156.097 -170.63 C 156.192 -154.31 155.78 -137.99 156.487 -121.67 C 156.843 -113.45 159.96 -106.89 167.125 -101.55 Z" style="stroke-width: 1;"/>
    <path fill="#FFFFFF" opacity="1.FFFFFF" stroke="none" d="M 45.867 -36.029 C 53.44 -6.477 64.65 20.145 83.238 41.923 C 108.196 71.164 139.703 85.295 174.227 91.856 C 184.892 93.884 195.722 94.765 206.418 96.616 C 215.833 98.245 220.18 103.749 220.67 113.54 C 221.145 123.066 217.086 129.067 207.798 131.776 C 190.438 136.838 172.419 137.877 155.104 143.474 C 95.65 162.687 60.589 207.585 46.901 275.782 C 43.299 293.735 40.983 311.849 38.877 330.05 C 38.187 336.01 36.529 341.651 32.681 346.092 C 28.456 350.968 23.675 353.654 17.433 351.796 C 10.817 349.829 7.141 345.466 5.632 337.548 C 1.006 313.29 -2.217 288.66 -8.722 264.889 C -26.48 200 -66.162 162.817 -122.67 146.819 C -138.26 142.405 -154.4 141.891 -170.02 137.838 C -180.03 135.234 -184.78 128.891 -184.33 119.181 C -183.87 109.617 -178.54 104.221 -168.27 102.35 C -146.41 98.362 -124.4 95.275 -103.4 86.554 C -52.957 65.607 -23.199 23.984 -10.218 -34.632 C -5.342 -56.65 -2.565 -79.074 0.505 -101.46 C 2.172 -113.61 8.328 -119.93 16.989 -120.21 C 24.874 -120.45 31.474 -114.15 33.755 -102.42 C 37.697 -82.153 39.753 -61.431 44.61 -41.361 C 44.988 -39.8 45.358 -38.236 45.867 -36.029 M 89.56 90.806 C 60.31 68.513 40.09 37.956 26.774 1.072 C 24.622 -4.886 22.325 -10.758 16.757 -16.127 C -0.947 53.619 -40.427 98.749 -101.48 120.088 C -99.44 121.825 -98.938 122.464 -98.319 122.735 C -96.558 123.502 -94.756 124.15 -92.955 124.796 C -72.528 132.111 -53.245 142.054 -36.261 157.222 C -13.381 177.66 2.822 203.822 14.182 234.176 C 15.958 238.923 16.8 244.466 22.682 249.255 C 43.32 185.187 77.024 136.09 136.659 116.059 C 128.341 111.473 120.679 108.172 113.002 104.924 C 104.973 101.527 97.771 96.328 89.56 90.806 Z" style="stroke-width: 1; transform-box: fill-box; transform-origin: 50.4332% 50.4423%;"/>
    <path fill="#FFFFFF" opacity="1.FFFFFF" stroke="none" d="M 169.619 26.149 C 168.044 36.644 163.491 41.534 155.62 41.499 C 146.919 41.459 144.387 35.633 142.28 28.262 C 140.531 22.147 144.73 13.842 139.151 10.408 C 134.648 7.635 127.356 9.565 121.336 9.038 C 111.982 8.216 106.709 3.343 106.21 -4.477 C 105.69 -12.628 110.951 -18.73 120.103 -20.203 C 126.353 -21.208 134.005 -19.935 138.589 -23.155 C 143.883 -26.87 139.365 -35.111 140.79 -41.208 C 141.383 -43.738 142.023 -46.278 142.925 -48.707 C 144.986 -54.267 148.546 -58.486 154.934 -58.201 C 161.333 -57.918 165.489 -54.123 167.639 -48.058 C 169.725 -42.178 169.76 -36.09 169.404 -30.033 C 169.053 -24.038 171.36 -21.578 177.45 -21.912 C 181.447 -22.131 185.522 -21.555 189.519 -21.015 C 199.761 -19.629 203.322 -15.184 202.903 -4.662 C 202.574 3.557 198.136 7.555 188.646 8.169 C 187.779 8.228 186.91 8.225 186.042 8.244 C 167.285 8.673 169.872 6.413 169.619 26.149 Z" style="stroke-width: 1; transform-box: fill-box; transform-origin: -122.318% 170.343%;"/>
    <path fill="#FFFFFF" opacity="1.FFFFFF" stroke="none" d="M -77.891 260.641 C -71.466 265.678 -64.514 262.497 -58.067 263.655 C -50.795 264.96 -43.389 265.787 -40.066 274.213 C -37.48 280.77 -38.007 286.612 -42.243 292.176 C -46.356 297.58 -52.447 298.185 -58.491 298.663 C -62.497 298.98 -66.544 299.083 -70.562 298.946 C -76.17 298.754 -78.442 301.338 -78.307 306.827 C -78.192 311.512 -78.285 316.23 -78.718 320.894 C -79.564 329.986 -85.105 334.697 -93.86 335.463 C -102.37 336.212 -109.07 330.525 -110.69 321.511 C -111.27 318.229 -111.73 314.767 -111.33 311.501 C -110.1 301.375 -114.86 298.742 -124.18 299.266 C -133.42 299.783 -143.51 300.796 -149.32 290.838 C -155.95 279.509 -150.35 267.352 -137.25 265.008 C -131.71 264.012 -125.9 264.084 -120.21 264.22 C -114.19 264.359 -111.75 261.996 -111.94 255.886 C -112.16 248.892 -112.28 241.93 -110.75 234.884 C -109.05 227.163 -104.79 222.509 -97.391 222.122 C -89.321 221.696 -83.491 225.816 -80.728 233.929 C -77.821 242.422 -79.033 251.21 -77.891 260.641 Z" style="stroke-width: 1; transform-box: fill-box; transform-origin: 196.179% -101.764%;"/>
  </g>
</svg>